<svg height="45" width="45" xmlns="http://www.w3.org/2000/svg"><defs><clipPath id="a"><path d="M0 0v36h36V0H0"/></clipPath></defs><g clip-path="url(#a)" transform="matrix(1.25 0 0 -1.25 0 45)"><path d="M-42.796 29.036V8.051c0-.846.687-1.533 1.533-1.533h32.935c.846 0 1.533.687 1.533 1.533v20.985c0 .846-.687 1.533-1.533 1.533h-32.935a1.534 1.534 0 0 1-1.533-1.533z" fill="#2b2b2b" fill-rule="evenodd"/><path d="M-24.795 15.195l-18 12.227v1.613c0 .846.687 1.533 1.533 1.533h32.935c.846 0 1.533-.687 1.533-1.533v-1.394l-18.001-12.446z" fill="#525252" fill-rule="evenodd"/><path d="M.719 28.073V7.928c0-.812.66-1.471 1.472-1.471h31.615c.812 0 1.471.659 1.471 1.471v20.145c0 .812-.659 1.471-1.471 1.471H2.191a1.472 1.472 0 0 1-1.472-1.471z" fill="none" stroke="#000" stroke-width="1.44" stroke-linecap="round" stroke-miterlimit="10"/><path d="M17.999 14.786L.721 26.523v1.549c0 .812.66 1.471 1.472 1.471h31.614c.813 0 1.473-.659 1.473-1.471v-1.339L17.999 14.786z" fill="none" stroke="#000" stroke-width="1.44" stroke-linecap="round" stroke-miterlimit="10"/></g></svg>